<?xml version="1.0" encoding="utf-8"?>
<!-- Generator: Adobe Illustrator 26.3.1, SVG Export Plug-In . SVG Version: 6.00 Build 0)  -->
<svg version="1.1" xmlns="http://www.w3.org/2000/svg" xmlns:xlink="http://www.w3.org/1999/xlink" x="0px" y="0px"
	 viewBox="0 0 1080 1080" style="enable-background:new 0 0 1080 1080;" xml:space="preserve">
<style type="text/css">
	.st0{opacity:0.67;fill:#666666;}
	.st1{opacity:0.67;fill:#666666;stroke:#4D4D4D;stroke-width:20;stroke-miterlimit:10;}
	.st2{display:none;}
	.st3{display:inline;fill:none;stroke:#FF9900;stroke-width:40;stroke-miterlimit:10;}
	.st4{fill:#333333;}
	.st5{display:inline;fill:none;stroke:#999999;stroke-width:50;stroke-linecap:round;stroke-miterlimit:10;}
	.st6{fill:#999999;}
	.st7{fill:#FF9900;}
	.st8{fill:#FFFFFF;}
	.st9{fill:#FFFFFF;stroke:#FF9900;stroke-width:40;stroke-miterlimit:10;}
	.st10{display:inline;fill:none;stroke:#4D4D4D;stroke-width:20;stroke-miterlimit:10;}
	.st11{display:inline;}
	.st12{fill:#4D4D4D;}
	.st13{fill:#333333;stroke:#4D4D4D;stroke-width:20;stroke-miterlimit:10;}
</style>
<g id="Layer_2">
	<path class="st0" d="M835,120c-22.09,0-40,17.91-40,40c0,7.42,2.02,14.36,5.54,20.32L760.86,220h-51.72l-40-40l35.54-35.54
		c5.96,3.52,12.9,5.54,20.32,5.54c22.09,0,40-17.91,40-40c0-22.09-17.91-40-40-40s-40,17.91-40,40c0,7.42,2.02,14.36,5.54,20.32
		L556.21,264.65L509.41,219h-31.64l-66.85-60.78L469.14,100h67.12c4.44,17.25,20.11,30,38.74,30c22.09,0,40-17.91,40-40
		c0-22.09-17.91-40-40-40c-18.63,0-34.3,12.75-38.74,30h-75.4l-64.76,64.76l-16.38-14.89c3.36-5.86,5.28-12.64,5.28-19.87
		c0-22.09-17.91-40-40-40s-40,17.91-40,40c0,22.09,17.91,40,40,40c7.59,0,14.7-2.12,20.75-5.8l82.28,74.8H253.47
		c-4.78-16.74-20.2-29-38.47-29c-22.09,0-40,17.91-40,40c0,22.09,17.91,40,40,40c18.99,0,34.9-13.24,38.99-31h99.85l-53.38,61
		H173.74c-4.44-17.25-20.11-30-38.74-30c-22.09,0-40,17.91-40,40c0,22.09,17.91,40,40,40c18.63,0,34.3-12.75,38.74-30h135.8
		l70.87-81h120.87l40.79,39.79l-7.07,7.07v65.4c-17.26,4.43-30.02,20.1-30.02,38.74c0,18.98,13.23,34.88,30.97,38.98l-1.91,412.54
		C517.28,846.29,505,861.71,505,880c0,18.63,12.75,34.3,30,38.74v32.52c-17.25,4.44-30,20.11-30,38.74c0,22.09,17.91,40,40,40
		s40-17.91,40-40c0-18.63-12.75-34.3-30-38.74v-32.52c17.25-4.44,30-20.11,30-38.74c0-18.98-13.22-34.87-30.96-38.98l1.91-412.55
		c16.76-4.76,29.03-20.18,29.03-38.47c0-18.63-12.74-34.28-29.98-38.73v-57.13l45-45l70.54,70.54c-3.52,5.96-5.54,12.9-5.54,20.32
		c0,22.09,17.91,40,40,40s40-17.91,40-40c0-22.09-17.91-40-40-40c-7.42,0-14.36,2.02-20.32,5.54L614.14,235L655,194.14L700.86,240
		h68.28l45.54-45.54c5.96,3.52,12.9,5.54,20.32,5.54c22.09,0,40-17.91,40-40C875,137.91,857.09,120,835,120z M725,90
		c11.03,0,20,8.97,20,20c0,11.03-8.97,20-20,20s-20-8.97-20-20C705,98.97,713.97,90,725,90z M575,70c11.03,0,20,8.97,20,20
		c0,11.03-8.97,20-20,20s-20-8.97-20-20C555,78.97,563.97,70,575,70z M345,130c-11.03,0-20-8.97-20-20c0-11.03,8.97-20,20-20
		s20,8.97,20,20C365,121.03,356.03,130,345,130z M215,250c-11.03,0-20-8.97-20-20c0-11.03,8.97-20,20-20s20,8.97,20,20
		C235,241.03,226.03,250,215,250z M135,330c-11.03,0-20-8.97-20-20c0-11.03,8.97-20,20-20s20,8.97,20,20
		C155,321.03,146.03,330,135,330z M565,990c0,11.03-8.97,20-20,20s-20-8.97-20-20c0-11.03,8.97-20,20-20S565,978.97,565,990z
		 M565,880c0,11.03-8.97,20-20,20s-20-8.97-20-20c0-11.03,8.97-20,20-20S565,868.97,565,880z M564.98,390c0,11.03-8.97,20-20,20
		c-11.03,0-20-8.97-20-20c0-11.03,8.97-20,20-20C556.01,370,564.98,378.97,564.98,390z M705,320c11.03,0,20,8.97,20,20
		c0,11.03-8.97,20-20,20s-20-8.97-20-20C685,328.97,693.97,320,705,320z M835,180c-11.03,0-20-8.97-20-20c0-11.03,8.97-20,20-20
		s20,8.97,20,20C855,171.03,846.03,180,835,180z"/>
	<path class="st1" d="M690.63,216.09"/>
	<path class="st1" d="M859.75,176.59"/>
	<path class="st1" d="M783.66,176.59"/>
	<path class="st1" d="M734.94,224.11"/>
	<path class="st1" d="M934.31,526.15"/>
	<path class="st1" d="M757.85,526.15"/>
	<path class="st1" d="M675.21,458.49"/>
	<path class="st1" d="M738.24,220.19"/>
	<path class="st1" d="M801.06,224.26"/>
	<path class="st1" d="M931.44,434.87"/>
	<path class="st1" d="M749.9,436.18"/>
	<path class="st1" d="M399.78,894.51"/>
	<path class="st0" d="M475,761.26V548.74c17.25-4.44,30-20.11,30-38.74c0-22.09-17.91-40-40-40c-10.08,0-19.29,3.73-26.32,9.9
		L348.8,400H143.74c-4.44-17.25-20.11-30-38.74-30c-22.09,0-40,17.91-40,40c0,22.09,17.91,40,40,40c18.63,0,34.3-12.75,38.74-30
		h162.7l-48.23,73h-27.22c-4.09-17.76-20-31-38.99-31c-22.09,0-40,17.91-40,40c0,22.09,17.91,40,40,40c18.27,0,33.69-12.26,38.47-29
		h38.5l61.44-93h10.79l86.12,76.55c-1.5,4.2-2.32,8.73-2.32,13.45c0,18.63,12.75,34.3,30,38.74v212.52
		c-17.25,4.44-30,20.11-30,38.74c0,7.18,1.89,13.91,5.21,19.74L395,847.11v44.15c-17.25,4.44-30,20.11-30,38.74
		c0,22.09,17.91,40,40,40s40-17.91,40-40c0-18.63-12.75-34.3-30-38.74v-34.37l29.21-22.71c6.06,3.69,13.18,5.82,20.79,5.82
		c22.09,0,40-17.91,40-40C505,781.37,492.25,765.7,475,761.26z M105,430c-11.03,0-20-8.97-20-20c0-11.03,8.97-20,20-20
		s20,8.97,20,20C125,421.03,116.03,430,105,430z M192,522c-11.03,0-20-8.97-20-20c0-11.03,8.97-20,20-20s20,8.97,20,20
		C212,513.03,203.03,522,192,522z M425,930c0,11.03-8.97,20-20,20s-20-8.97-20-20c0-11.03,8.97-20,20-20S425,918.97,425,930z
		 M445,510c0-11.03,8.97-20,20-20s20,8.97,20,20c0,11.03-8.97,20-20,20S445,521.03,445,510z M465,820c-11.03,0-20-8.97-20-20
		c0-11.03,8.97-20,20-20s20,8.97,20,20C485,811.03,476.03,820,465,820z"/>
	<path class="st0" d="M975,480c-18.63,0-34.3,12.75-38.74,30h-66.59l-75.41-90h102c4.44,17.25,20.11,30,38.74,30
		c22.09,0,40-17.91,40-40c0-22.09-17.91-40-40-40c-18.63,0-34.3,12.75-38.74,30h-78.03l77.24-75.09c5.78,3.24,12.44,5.09,19.53,5.09
		c22.09,0,40-17.91,40-40c0-22.09-17.91-40-40-40s-40,17.91-40,40c0,7.73,2.2,14.96,6,21.08L789.54,400h-78.61l-66.61,64.97
		C638.59,461.8,632.01,460,625,460c-22.09,0-40,17.91-40,40c0,18.63,12.75,34.3,30,38.74v232.52c-17.25,4.44-30,20.11-30,38.74
		c0,22.09,17.91,40,40,40c6.19,0,12.05-1.41,17.28-3.92l27.47,25c-3.03,5.63-4.75,12.08-4.75,18.92c0,22.09,17.91,40,40,40
		s40-17.91,40-40c0-22.09-17.91-40-40-40c-7.99,0-15.44,2.35-21.68,6.39l-25.63-23.33c4.6-6.52,7.31-14.47,7.31-23.06
		c0-18.63-12.75-34.3-30-38.74V538.74c17.25-4.44,30-20.11,30-38.74c0-7.82-2.25-15.12-6.13-21.28l60.2-58.72h49.1l92.16,110h75.93
		c4.44,17.25,20.11,30,38.74,30c22.09,0,40-17.91,40-40C1015,497.91,997.09,480,975,480z M935,390c11.03,0,20,8.97,20,20
		c0,11.03-8.97,20-20,20s-20-8.97-20-20C915,398.97,923.97,390,935,390z M915,270c11.03,0,20,8.97,20,20c0,11.03-8.97,20-20,20
		s-20-8.97-20-20C895,278.97,903.97,270,915,270z M725,890c0,11.03-8.97,20-20,20s-20-8.97-20-20c0-11.03,8.97-20,20-20
		S725,878.97,725,890z M645,810c0,11.03-8.97,20-20,20s-20-8.97-20-20c0-11.03,8.97-20,20-20S645,798.97,645,810z M625,520
		c-11.03,0-20-8.97-20-20c0-11.03,8.97-20,20-20s20,8.97,20,20C645,511.03,636.03,520,625,520z M975,540c-11.03,0-20-8.97-20-20
		c0-11.03,8.97-20,20-20s20,8.97,20,20C995,531.03,986.03,540,975,540z"/>
</g>
<g id="Layer_3" class="st2">
	<line class="st3" x1="544.56" y1="846.28" x2="546.52" y2="421.76"/>
	<line class="st3" x1="465" y1="540" x2="465" y2="770.33"/>
	<line class="st3" x1="625" y1="530" x2="625" y2="780"/>
	<polyline class="st3" points="647.61,476.49 710,410 900,410 	"/>
	<polyline class="st3" points="770,410 860,520 940,520 	"/>
	<line class="st3" x1="790" y1="410" x2="890" y2="310"/>
	<polyline class="st3" points="544.94,360 544.98,290.15 702.49,133.45 	"/>
	<polyline class="st3" points="650,180 700,230 760,230 810,180 	"/>
	<path class="st3" d="M689.03,206.09"/>
	<path class="st3" d="M858.15,166.59"/>
	<path class="st3" d="M782.06,166.59"/>
	<path class="st3" d="M733.34,214.11"/>
	<polyline class="st3" points="560,280 510,230 200,230 	"/>
	<line class="st3" x1="480" y1="230" x2="360" y2="130"/>
	<polyline class="st3" points="390,160 460,100 540,100 	"/>
	<polyline class="st3" points="420,230 370,320 280,320 	"/>
	<polyline class="st3" points="440,490 350,410 140,410 	"/>
	<polyline class="st3" points="320,410 270,500 220,500 	"/>
	<line class="st3" x1="601.28" y1="237.07" x2="679.09" y2="313.77"/>
	<path class="st3" d="M932.71,516.15"/>
	<path class="st3" d="M756.25,516.15"/>
	<path class="st3" d="M673.61,448.49"/>
	<path class="st3" d="M736.64,210.19"/>
	<path class="st3" d="M799.46,214.26"/>
	<path class="st3" d="M929.84,424.87"/>
	<path class="st3" d="M748.3,426.18"/>
	<polyline class="st3" points="440,820 400,850 400,900 	"/>
	<line class="st3" x1="544.5" y1="915.82" x2="544.5" y2="955.97"/>
	<line class="st3" x1="640" y1="830" x2="680" y2="870"/>
	<path class="st3" d="M388.18,883.51"/>
	<circle class="st3" cx="465" cy="510" r="30"/>
	<circle class="st3" cx="190" cy="500" r="30"/>
	<circle class="st3" cx="119.52" cy="410" r="30"/>
	<circle class="st3" cx="260" cy="320" r="30"/>
	<circle class="st3" cx="170" cy="230" r="30"/>
	<circle class="st3" cx="543.8" cy="390" r="30"/>
	<circle class="st3" cx="545.54" cy="880" r="30"/>
	<circle class="st3" cx="544.5" cy="990" r="30"/>
	<circle class="st3" cx="400" cy="930" r="30"/>
	<circle class="st3" cx="705" cy="890" r="30"/>
	<circle class="st3" cx="625" cy="810" r="30"/>
	<circle class="st3" cx="465" cy="800" r="30"/>
	<circle class="st3" cx="625" cy="500" r="30"/>
	<circle class="st3" cx="975" cy="520" r="30"/>
	<circle class="st3" cx="938.62" cy="410" r="30"/>
	<circle class="st3" cx="915" cy="290" r="30"/>
	<circle class="st3" cx="705" cy="340" r="30"/>
	<circle class="st3" cx="835" cy="160" r="30"/>
	<circle class="st3" cx="728.77" cy="108.37" r="30"/>
	<circle class="st3" cx="575" cy="100" r="30"/>
	<circle class="st3" cx="340" cy="110" r="30"/>
</g>
<g id="Layer_6">
	<circle class="st4" cx="540" cy="540" r="540"/>
</g>
<g id="Layer_7" class="st2">
	<path class="st5" d="M316.56,961.1c43.73-42.95,124.01-121.42,149.07-187.98c37.31-99.11,25.13-209.36,23.35-246.33
		c-1.59-33.1,26.86-60,60-60s58.82,26.88,60,60c3.19,89.79-16.37,299.69-200.32,470.21"/>
	<path class="st5" d="M688.98,526.79c8.17,174.28-32.2,332.32-177.55,490.26"/>
	<path class="st5" d="M448.1,427.86c25.96-25.36,62.22-41.07,100.88-41.07c54.65,0,100.18,31.36,123.45,77.01"/>
	<path class="st5" d="M242.03,913.77c146.49-116.08,178.65-216.62,174.99-420.85"/>
	<path class="st5" d="M631.23,320c87.09,28.52,130.36,112.64,137.75,206.79c9.65,122.96-38.02,333.72-157.18,488.68"/>
	<path class="st5" d="M328.98,526.79c3.11-121.46,97.48-232.56,240.99-217.98"/>
	<path class="st5" d="M177.84,858.49c69.2-46.24,161.69-173.3,157.45-260.52"/>
	<path class="st5" d="M835.36,740.61c-14.12,81.23-39.03,145.72-103.24,243.77"/>
	<path class="st5" d="M744.31,293.37c107.8,97.79,125.23,233.42,99.91,373.83"/>
	<path class="st5" d="M581.59,219.03c31.21-0.01,85.02,18.59,113.12,37.18"/>
	<path class="st5" d="M254.35,463.81c23.13-130.16,119.57-214.92,261.53-237.02"/>
	<path class="st5" d="M117.81,782.79c61.72-51.3,131.17-130.19,131.17-256"/>
	<path class="st5" d="M928.98,634.37c-10.32,93.23-40.32,198.22-83.83,289.86"/>
	<path class="st5" d="M548.98,146.79c209.87,0,380,170.13,380,380"/>
	<path class="st5" d="M316.75,219.03c46.63-33.18,101.54-55.93,160.66-66.14"/>
	<path class="st5" d="M79.35,709.42c44.28-24.23,95.64-75.06,89.63-182.63c-5.57-99.78,28.49-185.68,84.51-250.38"/>
	<path class="st5" d="M1016.28,574.67c-9.72,88.61-28.55,162.03-53.56,236.96"/>
	<path class="st5" d="M885.04,203.6c54.71,54.36,135.28,163.53,135.28,304.72"/>
	<path class="st5" d="M681.91,83.29c56.5,17.03,108.42,44.63,153.45,80.5"/>
	<path class="st5" d="M112.68,397.25c60.6-192.23,226.22-333.46,436.31-333.46c24.37,0,9.26-2.51,32.61,1.14"/>
	<path class="st5" d="M59.68,634.37C91.2,586.16,74.03,526.63,91.2,472.16"/>
</g>
<g id="Layer_7_copy">
	<path class="st6" d="M242.05,938.77c-7.37,0-14.68-3.25-19.61-9.47c-8.58-10.82-6.75-26.54,4.07-35.12
		c70.4-55.78,112.37-107.29,136.09-167.01c22.55-56.75,31.35-126.67,29.43-233.8c-0.25-13.8,10.74-25.2,24.55-25.44
		c0.15,0,0.31,0,0.46,0c13.6,0,24.74,10.9,24.99,24.55c2.04,114.17-7.81,189.88-32.95,253.16
		c-27.14,68.31-73.87,126.21-151.51,187.73C252.97,937,247.49,938.77,242.05,938.77z"/>
	<path class="st6" d="M177.86,883.5c-8.07,0-15.99-3.9-20.81-11.11c-7.67-11.48-4.58-27,6.9-34.68
		c32.21-21.53,70.2-62.78,99.14-107.66c31.67-49.11,48.88-96.8,47.23-130.86c-0.67-13.79,9.97-25.51,23.76-26.18
		c13.79-0.64,25.51,9.97,26.18,23.76c4.88,100.45-96.55,234.42-168.53,282.52C187.46,882.13,182.63,883.5,177.86,883.5z"/>
	<path class="st6" d="M844.25,692.2c-1.47,0-2.96-0.13-4.46-0.4c-13.59-2.45-22.62-15.45-20.17-29.04
		c13-72.11,13.07-136.99,0.2-192.85c-14.35-62.32-45.41-115.48-92.31-158.03c-10.23-9.28-11-25.09-1.72-35.31
		c9.28-10.23,25.09-11,35.31-1.72c102.23,92.73,138.47,226.23,107.72,396.78C866.65,683.72,856.12,692.2,844.25,692.2z"/>
	<path class="st6" d="M694.68,281.21c-4.74,0-9.52-1.34-13.77-4.15c-25.2-16.67-74.38-33.03-99.31-33.03c-0.01,0-0.01,0-0.02,0
		c-13.81,0-25-11.19-25-25c0-13.81,11.19-25,25-25c0,0,0.01,0,0.02,0c38.54,0,96.72,21.37,126.89,41.33
		c11.52,7.62,14.68,23.13,7.06,34.64C710.75,277.27,702.79,281.21,694.68,281.21z"/>
	<path class="st6" d="M117.82,807.8c-7.17,0-14.29-3.07-19.24-9.02c-8.83-10.62-7.37-26.38,3.25-35.21
		c36.38-30.24,63.62-60.88,83.27-93.68c26.17-43.68,38.89-90.49,38.89-143.09c0-13.81,11.19-25,25-25s25,11.19,25,25
		c0,61.05-15.48,117.84-46,168.79c-22.6,37.72-53.41,72.54-94.2,106.44C129.12,805.9,123.45,807.8,117.82,807.8z"/>
	<path class="st6" d="M928.98,551.79c-13.81,0-25-11.19-25-25c0-94.82-36.93-183.97-103.98-251.02
		c-67.05-67.05-156.2-103.98-251.02-103.98c-13.81,0-25-11.19-25-25s11.19-25,25-25c54.66,0,107.71,10.71,157.65,31.84
		c48.23,20.4,91.54,49.6,128.73,86.78c37.19,37.19,66.39,80.5,86.79,128.73c21.12,49.95,31.84,102.99,31.84,157.65
		C953.98,540.6,942.79,551.79,928.98,551.79z"/>
	<path class="st6" d="M316.77,244.03c-7.82,0-15.51-3.65-20.39-10.51c-8.01-11.25-5.38-26.86,5.87-34.86
		c49.64-35.33,108.74-59.67,170.9-70.41c13.61-2.34,26.54,6.78,28.89,20.38c2.35,13.61-6.78,26.54-20.38,28.89
		c-54.83,9.47-106.84,30.86-150.42,61.87C326.85,242.52,321.78,244.03,316.77,244.03z"/>
	<path class="st6" d="M962.72,836.63c-2.62,0-5.29-0.42-7.92-1.29c-13.1-4.37-20.17-18.53-15.8-31.63
		c28.2-84.47,43.88-153.78,52.43-231.76c1.5-13.73,13.85-23.64,27.58-22.13c13.72,1.5,23.63,13.85,22.13,27.58
		c-8.84,80.62-25.71,155.3-54.7,242.15C982.94,830.01,973.18,836.63,962.72,836.63z"/>
	<path class="st6" d="M1020.32,533.32c-13.81,0-25-11.19-25-25c0-144.32-89.45-248.77-127.9-286.98
		c-9.79-9.73-9.84-25.56-0.11-35.35c9.73-9.79,25.56-9.85,35.36-0.11c42.89,42.62,142.66,159.35,142.66,322.45
		C1045.32,522.13,1034.12,533.32,1020.32,533.32z"/>
	<path class="st6" d="M835.35,188.79c-5.46,0-10.96-1.78-15.56-5.45c-43.41-34.58-92.22-60.18-145.09-76.12
		c-13.22-3.98-20.71-17.93-16.72-31.15c3.98-13.22,17.93-20.71,31.15-16.72c58.98,17.77,113.42,46.33,161.82,84.88
		c10.8,8.6,12.58,24.33,3.98,35.13C849.98,185.56,842.7,188.79,835.35,188.79z"/>
	<path class="st7" d="M953.83,637.12c-10.68,96.54-42.06,205.09-86.09,297.83c-4.28,9.01-13.25,14.28-22.6,14.28
		c-3.59,0-7.24-0.78-10.71-2.42c-12.47-5.92-17.78-20.84-11.86-33.31c41.74-87.9,71.47-190.65,81.56-281.88
		c1.52-13.73,13.89-23.62,27.6-22.1C945.46,611.04,955.35,623.39,953.83,637.12z"/>
	<path class="st7" d="M762.69,766.16c-29.13,99.44-74.45,190.92-131.07,264.55c-4.92,6.41-12.34,9.77-19.84,9.77
		c-5.32,0-10.67-1.69-15.22-5.19c-10.94-8.41-12.99-24.11-4.58-35.05c52.89-68.78,95.32-154.58,122.72-248.13
		c23.5-80.24,34.2-161.65,29.36-223.36c-3.53-44.95-15.73-85.33-35.29-116.76c-20.9-33.58-49.6-56.54-85.32-68.23
		c-13.12-4.3-20.28-18.42-15.98-31.54c4.3-13.12,18.42-20.27,31.54-15.98c47.19,15.45,84.94,45.51,112.21,89.33
		c23.77,38.21,38.53,86.36,42.69,139.27C799.21,592.37,787.83,680.33,762.69,766.16z"/>
	<path class="st7" d="M193.94,525.4c2.99,53.45-6.94,99.51-29.51,136.89c-17.41,28.82-42,52.06-73.08,69.06
		c-3.8,2.09-7.92,3.08-11.97,3.08c-8.85,0-17.41-4.7-21.96-13.01c-6.63-12.11-2.18-27.3,9.93-33.93
		c55.1-30.15,80.89-83.74,76.67-159.3c-2.87-51.44,4.04-101.25,20.54-148.06c15.47-43.88,39.03-84.29,70.03-120.08
		c9.04-10.44,24.83-11.57,35.26-2.54c10.44,9.04,11.58,24.83,2.54,35.27C216.19,357.68,189.07,438.12,193.94,525.4z"/>
	<path class="st7" d="M278.96,468.18c-2.15,12.12-12.69,20.63-24.58,20.63c-1.45,0-2.93-0.12-4.4-0.39
		c-13.6-2.41-22.66-15.39-20.25-28.98c6.19-34.8,17.4-67.24,33.33-96.44c15.76-28.89,36.21-54.73,60.78-76.81
		c48.93-43.98,112.24-72.28,188.19-84.1c13.65-2.13,26.43,7.21,28.55,20.86c2.13,13.64-7.21,26.42-20.86,28.54
		c-66.2,10.31-120.86,34.49-162.45,71.88C315.75,360.69,289.41,409.41,278.96,468.18z"/>
	<path class="st7" d="M88.83,389.74c15.82-50.17,38.48-97.17,67.35-139.73c28.97-42.68,63.66-80.09,103.11-111.2
		C342.26,73.38,442.43,38.79,548.98,38.79c8.31,0,10.85-0.3,12.37-0.48c6.74-0.79,9.39-0.38,24.1,1.92
		c13.64,2.13,22.97,14.92,20.84,28.56s-14.92,22.98-28.56,20.84c-3.99-0.62-8.82-1.38-10.85-1.62c-3.34,0.38-7.86,0.78-17.9,0.78
		c-95.2,0-184.67,30.87-258.73,89.28c-35.42,27.93-66.61,61.58-92.69,100.02c-26.15,38.53-46.69,81.15-61.04,126.68
		c-3.36,10.67-13.22,17.49-23.84,17.49c-2.49,0-5.02-0.38-7.52-1.16C91.99,416.94,84.68,402.9,88.83,389.74z"/>
	<path class="st7" d="M421.66,377.82c-41.52,36.56-66.19,91.09-67.69,149.61c-0.34,13.59-11.47,24.36-24.98,24.36
		c-0.21,0-0.43,0-0.65-0.01c-13.8-0.35-24.7-11.82-24.35-25.63c1.85-72.38,32.7-140.12,84.63-185.85
		c23.93-21.08,51.39-36.68,81.62-46.37c32.02-10.27,66.43-13.63,102.26-9.99c13.74,1.4,23.74,13.67,22.35,27.4
		c-1.4,13.74-13.67,23.74-27.4,22.35C511.33,327.98,460.92,343.25,421.66,377.82z"/>
	<path class="st7" d="M859.99,744.89c-15.49,89.16-44.48,157.78-106.95,253.19c-4.79,7.32-12.79,11.3-20.94,11.3
		c-4.69,0-9.44-1.32-13.67-4.08c-11.55-7.57-14.78-23.06-7.22-34.61c59.09-90.25,85.14-151.58,99.52-234.36
		c2.37-13.61,15.31-22.72,28.91-20.35C853.25,718.34,862.36,731.28,859.99,744.89z"/>
	<path class="st7" d="M602.79,739.31c-34.26,105.96-93.85,198.83-177.13,276.03c-4.81,4.46-10.91,6.66-16.99,6.66
		c-6.72,0-13.41-2.69-18.34-8c-9.39-10.13-8.79-25.95,1.34-35.33c76.93-71.32,131.95-157.02,163.54-254.74
		c28.03-86.7,30.07-160.17,28.79-196.25c-0.72-20.12-16.1-35.89-35.02-35.89c-9.91,0-19.5,4.1-26.31,11.24
		c-6.02,6.32-9.11,14.33-8.72,22.56c0.18,3.66,0.47,8.22,0.81,13.5c3.11,48.38,9.57,149.06-25.73,242.84
		C462.24,853.1,382.7,931.2,335.18,977.86l-1.1,1.08c-9.85,9.68-25.68,9.53-35.35-0.32c-9.68-9.85-9.53-25.68,0.32-35.35l1.1-1.09
		c41.65-40.9,119.18-117.03,142.08-177.86c31.52-83.71,25.52-177.13,22.63-222.03c-0.35-5.49-0.65-10.23-0.85-14.3
		c-1.06-22.02,6.92-43.14,22.47-59.45c16.2-17,38.98-26.75,62.5-26.75c45.98,0,83.31,36.95,84.99,84.11
		C635.36,565.27,633.17,645.33,602.79,739.31z"/>
	<path class="st7" d="M430.22,445.33c-9.65-9.88-9.46-25.71,0.42-35.36c31.35-30.62,74.48-48.18,118.34-48.18
		c31.06,0,61.14,8.76,86.99,25.34c24.73,15.86,45.04,38.45,58.74,65.32c6.27,12.3,1.38,27.36-10.92,33.63
		c-3.64,1.85-7.51,2.73-11.33,2.73c-9.1,0-17.88-4.98-22.3-13.65c-20.23-39.68-58.05-63.37-101.18-63.37
		c-30.91,0-61.32,12.38-83.41,33.95C455.69,455.39,439.86,455.2,430.22,445.33z"/>
	<path class="st7" d="M681.48,786.02c-29.65,88.18-79.25,169.29-151.65,247.96c-4.93,5.36-11.65,8.07-18.4,8.07
		c-6.05,0-12.12-2.18-16.92-6.6c-10.16-9.35-10.82-25.17-1.47-35.33c67.55-73.4,113.68-148.64,141.04-230.03
		c24.38-72.53,34.17-151.73,29.93-242.13c-0.65-13.79,10.01-25.49,23.8-26.14c13.75-0.65,25.5,10.01,26.15,23.8
		C718.49,622.33,707.87,707.51,681.48,786.02z"/>
	<path class="st6" d="M59.66,659.37c-4.69,0-9.44-1.32-13.66-4.08c-11.56-7.56-14.8-23.05-7.24-34.61
		c14.83-22.69,16.27-49.71,17.93-81.01c1.29-24.36,2.63-49.54,10.67-75.03c4.15-13.17,18.19-20.48,31.36-16.33
		c13.17,4.15,20.48,18.19,16.33,31.36c-6.13,19.45-7.25,40.43-8.43,62.65c-1.87,35.28-3.81,71.76-26.01,105.72
		C75.81,655.38,67.82,659.37,59.66,659.37z"/>
</g>
<g id="Layer_3_copy">
	<path class="st8" d="M645,764.18V780h-40v-15.82c6.13-2.69,12.89-4.18,20-4.18S638.87,761.49,645,764.18z"/>
	<path class="st9" d="M689.03,206.09"/>
	<path class="st9" d="M858.15,166.59"/>
	<path class="st9" d="M782.06,166.59"/>
	<path class="st9" d="M733.34,214.11"/>
	<path class="st9" d="M932.71,516.15"/>
	<path class="st9" d="M756.25,516.15"/>
	<path class="st9" d="M673.61,448.49"/>
	<path class="st9" d="M736.64,210.19"/>
	<path class="st9" d="M799.46,214.26"/>
	<path class="st9" d="M929.84,424.87"/>
	<path class="st9" d="M748.3,426.18"/>
	
		<rect x="640" y="821.72" transform="matrix(0.7071 -0.7071 0.7071 0.7071 -407.7312 715.6497)" class="st8" width="40" height="56.57"/>
	<path class="st9" d="M388.18,883.51"/>
	<path class="st8" d="M485,754.18V555.82c17.65-7.73,30-25.36,30-45.82c0-27.57-22.43-50-50-50c-8.11,0-15.79,1.95-22.57,5.4
		L357.6,390H165.34c-7.73-17.65-25.36-30-45.82-30c-27.57,0-50,22.43-50,50s22.43,50,50,50c20.46,0,38.09-12.35,45.82-30h120.67
		l-27.78,50h-22.41c-7.73-17.65-25.36-30-45.82-30c-27.57,0-50,22.43-50,50s22.43,50,50,50c20.46,0,38.09-12.35,45.82-30h45.95
		l49.99-90h10.64l74.52,66.25c-1.25,4.37-1.92,8.98-1.92,13.75c0,20.46,12.35,38.09,30,45.82v198.36c-17.65,7.73-30,25.36-30,45.82
		c0,4.33,0.55,8.54,1.6,12.55L380,840v44.18c-17.65,7.73-30,25.36-30,45.82c0,27.57,22.43,50,50,50s50-22.43,50-50
		c0-20.46-12.35-38.09-30-45.82V860l21.31-15.98c7.06,3.81,15.13,5.98,23.69,5.98c27.57,0,50-22.43,50-50
		C515,779.54,502.65,761.91,485,754.18z M119.52,420c-5.52,0-10-4.49-10-10s4.48-10,10-10c5.51,0,10,4.49,10,10
		S125.03,420,119.52,420z M190,510c-5.51,0-10-4.49-10-10s4.49-10,10-10s10,4.49,10,10S195.51,510,190,510z M400,940
		c-5.51,0-10-4.49-10-10s4.49-10,10-10s10,4.49,10,10S405.51,940,400,940z M465,810c-5.51,0-10-4.49-10-10s4.49-10,10-10
		s10,4.49,10,10S470.51,810,465,810z M465,520c-5.51,0-10-4.49-10-10s4.49-10,10-10s10,4.49,10,10S470.51,520,465,520z"/>
	<path class="st8" d="M705,940c-27.57,0-50-22.43-50-50s22.43-50,50-50s50,22.43,50,50S732.57,940,705,940z M705,880
		c-5.51,0-10,4.49-10,10s4.49,10,10,10s10-4.49,10-10S710.51,880,705,880z"/>
	<path class="st8" d="M645,764.18c-6.13-2.69-12.89-4.18-20-4.18s-13.87,1.49-20,4.18c-17.65,7.73-30,25.36-30,45.82
		c0,27.57,22.43,50,50,50c5.06,0,9.95-0.76,14.56-2.16c13.4-4.09,24.43-13.66,30.46-26.1c3.19-6.58,4.98-13.95,4.98-21.74
		C675,789.54,662.65,771.91,645,764.18z M615,810c0-5.51,4.49-10,10-10s10,4.49,10,10s-4.49,10-10,10S615,815.51,615,810z"/>
	<path class="st8" d="M975,470c-20.46,0-38.09,12.35-45.82,30h-59.7l-57.28-70h80.6c7.73,17.65,25.36,30,45.82,30
		c27.57,0,50-22.43,50-50s-22.43-50-50-50c-20.46,0-38.09,12.35-45.82,30h-54.52l54.98-54.98c6.58,3.19,13.95,4.98,21.74,4.98
		c27.57,0,50-22.43,50-50s-22.43-50-50-50s-50,22.43-50,50c0,5.06,0.76,9.95,2.16,14.56L781.72,390h-80.38l-59.16,63.05
		c-5.36-1.97-11.15-3.05-17.18-3.05c-27.57,0-50,22.43-50,50c0,20.46,12.35,38.09,30,45.82v218.36c6.13-2.69,12.89-4.18,20-4.18
		s13.87,1.49,20,4.18V545.82c17.65-7.73,30-25.36,30-45.82c0-6.85-1.39-13.38-3.89-19.33L718.66,430h41.87l89.99,110h78.66
		c7.73,17.65,25.36,30,45.82,30c27.57,0,50-22.43,50-50S1002.57,470,975,470z M938.62,400c5.51,0,10,4.49,10,10s-4.49,10-10,10
		s-10-4.49-10-10S933.11,400,938.62,400z M915,280c5.51,0,10,4.49,10,10s-4.49,10-10,10s-10-4.49-10-10S909.49,280,915,280z
		 M625,490c5.51,0,10,4.49,10,10s-4.49,10-10,10s-10-4.49-10-10S619.49,490,625,490z M975,530c-5.51,0-10-4.49-10-10s4.49-10,10-10
		s10,4.49,10,10S980.51,530,975,530z"/>
	<path class="st8" d="M835,110c-27.57,0-50,22.43-50,50c0,5.06,0.76,9.95,2.16,14.56L751.72,210h-43.44l-27.12-27.12l28.47-28.32
		c5.9,2.46,12.36,3.81,19.14,3.81c27.57,0,50-22.43,50-50s-22.43-50-50-50s-50,22.43-50,50c0,6.1,1.1,11.96,3.11,17.37
		L557.63,249.35L518.28,210h-31.05l-63.29-52.74L467.4,120h61.78c7.73,17.65,25.36,30,45.82,30c27.57,0,50-22.43,50-50
		s-22.43-50-50-50c-20.46,0-38.09,12.35-45.82,30H452.6l-59.83,51.28l-5.61-4.67C389,121.41,390,115.82,390,110
		c0-27.57-22.43-50-50-50s-50,22.43-50,50s22.43,50,50,50c7.05,0,13.76-1.47,19.84-4.11L424.77,210H215.82
		c-7.73-17.65-25.36-30-45.82-30c-27.57,0-50,22.43-50,50s22.43,50,50,50c20.46,0,38.09-12.35,45.82-30h170.19l-27.78,50h-52.41
		c-7.73-17.65-25.36-30-45.82-30c-27.57,0-50,22.43-50,50s22.43,50,50,50c20.46,0,38.09-12.35,45.82-30h75.95l49.99-90h69.96
		l27.56,27.56l-4.29,4.27l-0.04,61.86c-18.26,7.46-31.15,25.41-31.15,46.31c0,21.47,13.6,39.82,32.65,46.89l-1.84,397.71
		c-17.15,7.93-29.07,25.3-29.07,45.4c0,20.06,11.87,37.39,28.96,45.35v18.83c-17.65,7.73-30,25.36-30,45.82c0,27.57,22.43,50,50,50
		s50-22.43,50-50c0-20.46-12.35-38.09-30-45.82v-17.92c18.2-7.48,31.04-25.4,31.04-46.26c0-20.81-12.78-38.7-30.92-46.21
		l1.84-399.23c16.22-8.27,27.34-25.14,27.34-44.56c0-20.02-11.82-37.32-28.85-45.3l0.03-46.23l34.88-34.71l58.66,57.82
		c-2.27,5.7-3.52,11.92-3.52,18.42c0,27.57,22.43,50,50,50s50-22.43,50-50s-22.43-50-50-50c-6.38,0-12.49,1.2-18.1,3.39
		l-58.68-57.84l24.59-24.46L691.72,250h76.56l44.98-44.98c6.58,3.19,13.95,4.98,21.74,4.98c27.57,0,50-22.43,50-50
		S862.57,110,835,110z M728.77,98.37c5.51,0,10,4.49,10,10c0,5.52-4.49,10-10,10c-5.52,0-10-4.48-10-10
		C718.77,102.86,723.25,98.37,728.77,98.37z M575,90c5.51,0,10,4.49,10,10s-4.49,10-10,10s-10-4.49-10-10S569.49,90,575,90z
		 M340,120c-5.51,0-10-4.49-10-10s4.49-10,10-10s10,4.49,10,10S345.51,120,340,120z M170,240c-5.51,0-10-4.49-10-10s4.49-10,10-10
		s10,4.49,10,10S175.51,240,170,240z M260,330c-5.51,0-10-4.49-10-10s4.49-10,10-10s10,4.49,10,10S265.51,330,260,330z M543.8,380
		c5.52,0,10,4.49,10,10s-4.48,10-10,10c-5.51,0-10-4.49-10-10S538.29,380,543.8,380z M544.5,1000c-5.52,0-10-4.49-10-10
		s4.48-10,10-10c5.51,0,10,4.49,10,10S550.01,1000,544.5,1000z M545.54,890c-5.52,0-10-4.49-10-10s4.48-10,10-10
		c5.51,0,10,4.49,10,10S551.05,890,545.54,890z M705,330c5.51,0,10,4.49,10,10s-4.49,10-10,10s-10-4.49-10-10S699.49,330,705,330z
		 M835,170c-5.51,0-10-4.49-10-10s4.49-10,10-10s10,4.49,10,10S840.51,170,835,170z"/>
</g>
<g id="Layer_1" class="st2">
	<line class="st10" x1="544.56" y1="846.28" x2="546.52" y2="421.76"/>
	<line class="st10" x1="465" y1="540" x2="465" y2="770.33"/>
	<line class="st10" x1="625" y1="530" x2="625" y2="780"/>
	<polyline class="st10" points="647.61,476.49 710,410 900,410 	"/>
	<polyline class="st10" points="770,410 860,520 940,520 	"/>
	<line class="st10" x1="790" y1="410" x2="890" y2="310"/>
	<polyline class="st10" points="544.94,360 544.98,290.15 702.49,133.45 	"/>
	<polyline class="st10" points="650,180 700,230 760,230 810,180 	"/>
	<path class="st10" d="M689.03,206.09"/>
	<path class="st10" d="M858.15,166.59"/>
	<path class="st10" d="M782.06,166.59"/>
	<path class="st10" d="M733.34,214.11"/>
	<polyline class="st10" points="560,280 510,230 200,230 	"/>
	<line class="st10" x1="480" y1="230" x2="360" y2="130"/>
	<polyline class="st10" points="390,160 460,100 540,100 	"/>
	<polyline class="st10" points="420,230 370,320 280,320 	"/>
	<polyline class="st10" points="440,490 350,410 140,410 	"/>
	<polyline class="st10" points="320,410 270,500 220,500 	"/>
	<line class="st10" x1="601.28" y1="237.07" x2="679.09" y2="313.77"/>
	<path class="st10" d="M932.71,516.15"/>
	<path class="st10" d="M756.25,516.15"/>
	<path class="st10" d="M673.61,448.49"/>
	<path class="st10" d="M736.64,210.19"/>
	<path class="st10" d="M799.46,214.26"/>
	<path class="st10" d="M929.84,424.87"/>
	<path class="st10" d="M748.3,426.18"/>
	<polyline class="st10" points="440,820 400,850 400,900 	"/>
	<line class="st10" x1="544.5" y1="915.82" x2="544.5" y2="955.97"/>
	<line class="st10" x1="640" y1="830" x2="680" y2="870"/>
	<path class="st10" d="M388.18,883.51"/>
	<g class="st11">
		<path class="st12" d="M465,490c11.03,0,20,8.97,20,20c0,11.03-8.97,20-20,20s-20-8.97-20-20C445,498.97,453.97,490,465,490
			 M465,470c-22.09,0-40,17.91-40,40c0,22.09,17.91,40,40,40s40-17.91,40-40C505,487.91,487.09,470,465,470L465,470z"/>
	</g>
	<g class="st11">
		<path class="st12" d="M465,780c11.03,0,20,8.97,20,20s-8.97,20-20,20s-20-8.97-20-20S453.97,780,465,780 M465,760
			c-22.09,0-40,17.91-40,40s17.91,40,40,40s40-17.91,40-40S487.09,760,465,760L465,760z"/>
	</g>
	<g class="st11">
		<path class="st12" d="M400,910c11.03,0,20,8.97,20,20s-8.97,20-20,20s-20-8.97-20-20S388.97,910,400,910 M400,890
			c-22.09,0-40,17.91-40,40s17.91,40,40,40s40-17.91,40-40S422.09,890,400,890L400,890z"/>
	</g>
	<g class="st11">
		<path class="st12" d="M545.54,860c11.03,0,20,8.97,20,20s-8.97,20-20,20c-11.03,0-20-8.97-20-20S534.51,860,545.54,860
			 M545.54,840c-22.09,0-40,17.91-40,40s17.91,40,40,40c22.09,0,40-17.91,40-40S567.63,840,545.54,840L545.54,840z"/>
	</g>
	<g class="st11">
		<path class="st12" d="M544.5,970c11.03,0,20,8.97,20,20s-8.97,20-20,20c-11.03,0-20-8.97-20-20S533.47,970,544.5,970 M544.5,950
			c-22.09,0-40,17.91-40,40s17.91,40,40,40c22.09,0,40-17.91,40-40S566.59,950,544.5,950L544.5,950z"/>
	</g>
	<g class="st11">
		<path class="st12" d="M705,870c11.03,0,20,8.97,20,20s-8.97,20-20,20s-20-8.97-20-20S693.97,870,705,870 M705,850
			c-22.09,0-40,17.91-40,40s17.91,40,40,40s40-17.91,40-40S727.09,850,705,850L705,850z"/>
	</g>
	<g class="st11">
		<path class="st12" d="M625,790c11.03,0,20,8.97,20,20s-8.97,20-20,20s-20-8.97-20-20S613.97,790,625,790 M625,770
			c-22.09,0-40,17.91-40,40s17.91,40,40,40s40-17.91,40-40S647.09,770,625,770L625,770z"/>
	</g>
	<g class="st11">
		<path class="st12" d="M625,480c11.03,0,20,8.97,20,20s-8.97,20-20,20s-20-8.97-20-20S613.97,480,625,480 M625,460
			c-22.09,0-40,17.91-40,40c0,22.09,17.91,40,40,40s40-17.91,40-40C665,477.91,647.09,460,625,460L625,460z"/>
	</g>
	<g class="st11">
		<path class="st12" d="M544.98,370c11.03,0,20,8.97,20,20s-8.97,20-20,20s-20-8.97-20-20S533.95,370,544.98,370 M544.98,350
			c-22.09,0-40,17.91-40,40s17.91,40,40,40s40-17.91,40-40S567.07,350,544.98,350L544.98,350z"/>
	</g>
	<g class="st11">
		<path class="st12" d="M705,320c11.03,0,20,8.97,20,20s-8.97,20-20,20s-20-8.97-20-20S693.97,320,705,320 M705,300
			c-22.09,0-40,17.91-40,40s17.91,40,40,40s40-17.91,40-40S727.09,300,705,300L705,300z"/>
	</g>
	<g class="st11">
		<path class="st12" d="M915,270c11.03,0,20,8.97,20,20s-8.97,20-20,20s-20-8.97-20-20S903.97,270,915,270 M915,250
			c-22.09,0-40,17.91-40,40s17.91,40,40,40s40-17.91,40-40S937.09,250,915,250L915,250z"/>
	</g>
	<g class="st11">
		<path class="st12" d="M938.62,390c11.03,0,20,8.97,20,20s-8.97,20-20,20s-20-8.97-20-20S927.59,390,938.62,390 M938.62,370
			c-22.09,0-40,17.91-40,40s17.91,40,40,40c22.09,0,40-17.91,40-40S960.71,370,938.62,370L938.62,370z"/>
	</g>
	<g class="st11">
		<path class="st12" d="M975,500c11.03,0,20,8.97,20,20c0,11.03-8.97,20-20,20s-20-8.97-20-20C955,508.97,963.97,500,975,500
			 M975,480c-22.09,0-40,17.91-40,40c0,22.09,17.91,40,40,40s40-17.91,40-40C1015,497.91,997.09,480,975,480L975,480z"/>
	</g>
	<g class="st11">
		<path class="st12" d="M835,140c11.03,0,20,8.97,20,20s-8.97,20-20,20s-20-8.97-20-20S823.97,140,835,140 M835,120
			c-22.09,0-40,17.91-40,40s17.91,40,40,40s40-17.91,40-40S857.09,120,835,120L835,120z"/>
	</g>
	<g class="st11">
		<path class="st12" d="M728.77,88.37c11.03,0,20,8.97,20,20s-8.97,20-20,20s-20-8.97-20-20S717.74,88.37,728.77,88.37
			 M728.77,68.37c-22.09,0-40,17.91-40,40s17.91,40,40,40c22.09,0,40-17.91,40-40S750.86,68.37,728.77,68.37L728.77,68.37z"/>
	</g>
	<g class="st11">
		<path class="st12" d="M575,80c11.03,0,20,8.97,20,20s-8.97,20-20,20s-20-8.97-20-20S563.97,80,575,80 M575,60
			c-22.09,0-40,17.91-40,40s17.91,40,40,40s40-17.91,40-40S597.09,60,575,60L575,60z"/>
	</g>
	<g class="st11">
		<path class="st12" d="M340,90c11.03,0,20,8.97,20,20s-8.97,20-20,20s-20-8.97-20-20S328.97,90,340,90 M340,70
			c-22.09,0-40,17.91-40,40s17.91,40,40,40s40-17.91,40-40S362.09,70,340,70L340,70z"/>
	</g>
	<g class="st11">
		<path class="st12" d="M170,210c11.03,0,20,8.97,20,20s-8.97,20-20,20s-20-8.97-20-20S158.97,210,170,210 M170,190
			c-22.09,0-40,17.91-40,40s17.91,40,40,40s40-17.91,40-40S192.09,190,170,190L170,190z"/>
	</g>
	<g class="st11">
		<path class="st12" d="M260,300c11.03,0,20,8.97,20,20s-8.97,20-20,20c-11.03,0-20-8.97-20-20S248.97,300,260,300 M260,280
			c-22.09,0-40,17.91-40,40s17.91,40,40,40s40-17.91,40-40S282.09,280,260,280L260,280z"/>
	</g>
	<g class="st11">
		<path class="st12" d="M119.52,390c11.03,0,20,8.97,20,20s-8.97,20-20,20s-20-8.97-20-20S108.49,390,119.52,390 M119.52,370
			c-22.09,0-40,17.91-40,40s17.91,40,40,40s40-17.91,40-40S141.61,370,119.52,370L119.52,370z"/>
	</g>
	<g class="st11">
		<path class="st12" d="M190.83,480c11.03,0,20,8.97,20,20s-8.97,20-20,20s-20-8.97-20-20S179.8,480,190.83,480 M190.83,460
			c-22.09,0-40,17.91-40,40c0,22.09,17.91,40,40,40s40-17.91,40-40C230.83,477.91,212.92,460,190.83,460L190.83,460z"/>
	</g>
</g>
<g id="Layer_1_copy">
	<path class="st13" d="M689.03,206.09"/>
	<path class="st13" d="M858.15,166.59"/>
	<path class="st13" d="M782.06,166.59"/>
	<path class="st13" d="M733.34,214.11"/>
	<path class="st4" d="M475,761.26V548.74c17.25-4.44,30-20.11,30-38.74c0-22.09-17.91-40-40-40c-8.87,0-17.07,2.89-23.7,7.78
		L353.8,400H158.26c-4.44-17.25-20.11-30-38.74-30c-22.09,0-40,17.91-40,40c0,22.09,17.91,40,40,40c18.63,0,34.3-12.75,38.74-30
		h144.75l-38.89,70h-34.55c-4.44-17.25-20.11-30-38.74-30c-22.1,0-40,17.91-40,40c0,22.09,17.9,40,40,40
		c18.63,0,34.3-12.75,38.74-30h46.31l50-90h20.32l82.46,73.29c-2.35,5.09-3.66,10.75-3.66,16.71c0,18.63,12.75,34.3,30,38.74v212.52
		c-17.25,4.44-30,20.11-30,38.74c0,5.76,1.22,11.24,3.42,16.19L390,845v46.26c-17.25,4.44-30,20.11-30,38.74c0,22.09,17.91,40,40,40
		s40-17.91,40-40c0-18.63-12.75-34.3-30-38.74V855l30.84-23.13c6.71,5.1,15.09,8.13,24.16,8.13c22.09,0,40-17.91,40-40
		C505,781.37,492.25,765.7,475,761.26z M119.52,430c-11.03,0-20-8.97-20-20c0-11.03,8.97-20,20-20c11.02,0,20,8.97,20,20
		C139.52,421.03,130.54,430,119.52,430z M190.83,520c-11.03,0-20-8.97-20-20c0-11.03,8.97-20,20-20c11.02,0,20,8.97,20,20
		C210.83,511.03,201.85,520,190.83,520z M420,930c0,11.03-8.97,20-20,20s-20-8.97-20-20c0-11.03,8.97-20,20-20S420,918.97,420,930z
		 M445,510c0-11.03,8.97-20,20-20s20,8.97,20,20c0,11.03-8.97,20-20,20S445,521.03,445,510z M465,820c-11.03,0-20-8.97-20-20
		c0-11.03,8.97-20,20-20s20,8.97,20,20C485,811.03,476.03,820,465,820z"/>
	<path class="st13" d="M932.71,516.15"/>
	<path class="st13" d="M756.25,516.15"/>
	<path class="st13" d="M673.61,448.49"/>
	<path class="st13" d="M736.64,210.19"/>
	<path class="st13" d="M799.46,214.26"/>
	<path class="st13" d="M929.84,424.87"/>
	<path class="st13" d="M748.3,426.18"/>
	<path class="st13" d="M388.18,883.51"/>
	<path class="st4" d="M975,480c-18.63,0-34.3,12.75-38.74,30h-71.52l-73.64-90h108.78c4.44,17.25,20.11,30,38.74,30
		c22.09,0,40-17.91,40-40c0-22.09-17.91-40-40-40c-18.63,0-34.3,12.75-38.74,30h-85.74l77.52-77.52c6.57,4.73,14.63,7.52,23.34,7.52
		c22.09,0,40-17.91,40-40c0-22.09-17.91-40-40-40s-40,17.91-40,40c0,6.1,1.37,11.88,3.81,17.05L785.86,400h-80.19l-61.1,65.11
		c-5.79-3.25-12.46-5.11-19.57-5.11c-22.09,0-40,17.91-40,40c0,18.63,12.75,34.3,30,38.74v232.52c-17.25,4.44-30,20.11-30,38.74
		c0,22.09,17.91,40,40,40c6.1,0,11.88-1.37,17.05-3.81l26.76,26.76C666.37,878.12,665,883.9,665,890c0,22.09,17.91,40,40,40
		s40-17.91,40-40c0-22.09-17.91-40-40-40c-8.71,0-16.77,2.79-23.34,7.52l-24.18-24.18c4.73-6.57,7.52-14.63,7.52-23.34
		c0-18.63-12.75-34.3-30-38.74V538.74c17.25-4.44,30-20.11,30-38.74c0-7.72-2.19-14.94-5.99-21.05L714.33,420h50.93l90,110h81
		c4.44,17.25,20.11,30,38.74,30c22.09,0,40-17.91,40-40C1015,497.91,997.09,480,975,480z M938.62,390c11.03,0,20,8.97,20,20
		c0,11.03-8.97,20-20,20c-11.03,0-20-8.97-20-20C918.62,398.97,927.59,390,938.62,390z M915,270c11.03,0,20,8.97,20,20
		c0,11.03-8.97,20-20,20s-20-8.97-20-20C895,278.97,903.97,270,915,270z M705,870c11.03,0,20,8.97,20,20c0,11.03-8.97,20-20,20
		s-20-8.97-20-20C685,878.97,693.97,870,705,870z M645,810c0,11.03-8.97,20-20,20s-20-8.97-20-20c0-11.03,8.97-20,20-20
		S645,798.97,645,810z M625,520c-11.03,0-20-8.97-20-20c0-11.03,8.97-20,20-20s20,8.97,20,20C645,511.03,636.03,520,625,520z
		 M975,540c-11.03,0-20-8.97-20-20c0-11.03,8.97-20,20-20s20,8.97,20,20C995,531.03,986.03,540,975,540z"/>
	<path class="st4" d="M835,120c-22.09,0-40,17.91-40,40c0,6.1,1.37,11.88,3.81,17.05L755.86,220h-51.72L667,182.86l40.7-40.48
		c6.12,3.8,13.34,5.99,21.07,5.99c22.09,0,40-17.91,40-40c0-22.09-17.91-40-40-40c-22.1,0-40,17.91-40,40
		c0,7.1,1.85,13.77,5.09,19.55L557.61,263.47L514.14,220h-30.52l-75.17-62.64L463.7,110h72.56c4.44,17.25,20.11,30,38.74,30
		c22.09,0,40-17.91,40-40c0-22.09-17.91-40-40-40c-18.63,0-34.3,12.75-38.74,30H456.3l-63.44,54.37l-17.91-14.92
		c3.22-5.76,5.05-12.39,5.05-19.45c0-22.09-17.91-40-40-40s-40,17.91-40,40c0,22.09,17.91,40,40,40c7.76,0,15.01-2.21,21.14-6.04
		L452.38,220H208.74c-4.44-17.25-20.11-30-38.74-30c-22.09,0-40,17.91-40,40c0,22.09,17.91,40,40,40c18.63,0,34.3-12.75,38.74-30
		h194.27l-38.89,70h-65.38c-4.44-17.25-20.11-30-38.74-30c-22.09,0-40,17.91-40,40c0,22.09,17.91,40,40,40
		c18.63,0,34.3-12.75,38.74-30h77.14l50-90h79.98l37.58,37.58l-8.46,8.41l-0.04,65.28c-17.23,4.46-29.96,20.11-29.96,38.73
		c0,19.18,13.5,35.2,31.51,39.1l-1.91,412.42c-16.77,4.77-29.04,20.19-29.04,38.48c0,18.26,12.23,33.66,28.96,38.45v32.81
		c-17.26,4.44-30,20.1-30,38.74c0,22.09,17.9,40,40,40c22.09,0,40-17.91,40-40c0-18.63-12.75-34.3-30-38.74V919
		c17.78-4.08,31.04-19.99,31.04-39c0-18.98-13.22-34.87-30.96-38.98l1.91-412.71c16.48-4.94,28.49-20.22,28.49-38.31
		c0-18.65-12.76-34.31-30.03-38.75l0.03-56.94l44.85-44.62l70.82,69.81c-3.59,6-5.65,13.01-5.65,20.5c0,22.09,17.91,40,40,40
		s40-17.91,40-40c0-22.09-17.91-40-40-40c-7.34,0-14.21,1.98-20.13,5.43l-70.86-69.85l38.82-38.61L695.86,240h68.28l47.52-47.52
		c6.57,4.73,14.63,7.52,23.34,7.52c22.09,0,40-17.91,40-40C875,137.91,857.09,120,835,120z M728.77,88.37c11.02,0,20,8.98,20,20
		c0,11.03-8.98,20-20,20c-11.03,0-20-8.97-20-20C708.77,97.35,717.74,88.37,728.77,88.37z M575,80c11.03,0,20,8.97,20,20
		c0,11.03-8.97,20-20,20s-20-8.97-20-20C555,88.97,563.97,80,575,80z M340,130c-11.03,0-20-8.97-20-20c0-11.03,8.97-20,20-20
		s20,8.97,20,20C360,121.03,351.03,130,340,130z M170,250c-11.03,0-20-8.97-20-20c0-11.03,8.97-20,20-20s20,8.97,20,20
		C190,241.03,181.03,250,170,250z M260,340c-11.03,0-20-8.97-20-20c0-11.03,8.97-20,20-20s20,8.97,20,20
		C280,331.03,271.03,340,260,340z M564.5,990c0,11.03-8.98,20-20,20c-11.03,0-20-8.97-20-20c0-11.03,8.97-20,20-20
		C555.52,970,564.5,978.97,564.5,990z M565.54,880c0,11.03-8.98,20-20,20c-11.03,0-20-8.97-20-20c0-11.03,8.97-20,20-20
		C556.56,860,565.54,868.97,565.54,880z M564.98,390c0,11.03-8.97,20-20,20c-11.03,0-20-8.97-20-20c0-11.03,8.97-20,20-20
		C556.01,370,564.98,378.97,564.98,390z M705,320c11.03,0,20,8.97,20,20c0,11.03-8.97,20-20,20s-20-8.97-20-20
		C685,328.97,693.97,320,705,320z M835,180c-11.03,0-20-8.97-20-20c0-11.03,8.97-20,20-20s20,8.97,20,20
		C855,171.03,846.03,180,835,180z"/>
</g>
</svg>
