<?xml version="1.0" encoding="UTF-8"?><svg xmlns="http://www.w3.org/2000/svg" viewBox="0 0 1080 1080"><defs><style>.cls-1{fill:#fff;}.cls-2{fill:#f90;}.cls-3{fill:#999;}.cls-4{fill:#333;}</style></defs><g id="Layer_6"><circle class="cls-4" cx="540" cy="540" r="540"/></g><g id="Layer_7_copy"><path class="cls-3" d="M242.05,938.77c-7.37,0-14.68-3.25-19.61-9.47-8.58-10.82-6.75-26.54,4.07-35.12,70.4-55.78,112.37-107.29,136.09-167.01,22.55-56.75,31.35-126.67,29.43-233.8-.25-13.8,10.74-25.2,24.55-25.44,.15,0,.31,0,.46,0,13.6,0,24.74,10.9,24.99,24.55,2.04,114.17-7.81,189.88-32.95,253.16-27.14,68.31-73.87,126.21-151.51,187.73-4.59,3.64-10.07,5.41-15.51,5.41Z"/><path class="cls-3" d="M177.86,883.5c-8.07,0-15.99-3.9-20.81-11.11-7.67-11.48-4.58-27,6.9-34.68,32.21-21.53,70.2-62.78,99.14-107.66,31.67-49.11,48.88-96.8,47.23-130.86-.67-13.79,9.97-25.51,23.76-26.18,13.79-.64,25.51,9.97,26.18,23.76,4.88,100.45-96.55,234.42-168.53,282.52-4.27,2.85-9.09,4.22-13.87,4.22Z"/><path class="cls-3" d="M844.25,692.2c-1.47,0-2.96-.13-4.46-.4-13.59-2.45-22.62-15.45-20.17-29.04,13-72.11,13.07-136.99,.2-192.85-14.35-62.32-45.41-115.48-92.31-158.03-10.23-9.28-11-25.09-1.72-35.31,9.28-10.23,25.09-11,35.31-1.72,102.23,92.73,138.47,226.23,107.72,396.78-2.18,12.09-12.71,20.57-24.57,20.57Z"/><path class="cls-3" d="M694.68,281.21c-4.74,0-9.52-1.34-13.77-4.15-25.2-16.67-74.38-33.03-99.31-33.03h-.02c-13.81,0-25-11.19-25-25,0-13.81,11.19-25,25-25h.02c38.54,0,96.72,21.37,126.89,41.33,11.52,7.62,14.68,23.13,7.06,34.64-4.81,7.27-12.76,11.21-20.87,11.21Z"/><path class="cls-3" d="M117.82,807.8c-7.17,0-14.29-3.07-19.24-9.02-8.83-10.62-7.37-26.38,3.25-35.21,36.38-30.24,63.62-60.88,83.27-93.68,26.17-43.68,38.89-90.49,38.89-143.09,0-13.81,11.19-25,25-25s25,11.19,25,25c0,61.05-15.48,117.84-46,168.79-22.6,37.72-53.41,72.54-94.2,106.44-4.67,3.88-10.34,5.78-15.97,5.78Z"/><path class="cls-3" d="M928.98,551.79c-13.81,0-25-11.19-25-25,0-94.82-36.93-183.97-103.98-251.02-67.05-67.05-156.2-103.98-251.02-103.98-13.81,0-25-11.19-25-25s11.19-25,25-25c54.66,0,107.71,10.71,157.65,31.84,48.23,20.4,91.54,49.6,128.73,86.78,37.19,37.19,66.39,80.5,86.79,128.73,21.12,49.95,31.84,102.99,31.84,157.65,0,13.81-11.19,25-25,25Z"/><path class="cls-3" d="M316.77,244.03c-7.82,0-15.51-3.65-20.39-10.51-8.01-11.25-5.38-26.86,5.87-34.86,49.64-35.33,108.74-59.67,170.9-70.41,13.61-2.34,26.54,6.78,28.89,20.38,2.35,13.61-6.78,26.54-20.38,28.89-54.83,9.47-106.84,30.86-150.42,61.87-4.4,3.13-9.46,4.63-14.47,4.63Z"/><path class="cls-3" d="M962.72,836.63c-2.62,0-5.29-.42-7.92-1.29-13.1-4.37-20.17-18.53-15.8-31.63,28.2-84.47,43.88-153.78,52.43-231.76,1.5-13.73,13.85-23.64,27.58-22.13,13.72,1.5,23.63,13.85,22.13,27.58-8.84,80.62-25.71,155.3-54.7,242.15-3.5,10.47-13.25,17.09-23.71,17.09Z"/><path class="cls-3" d="M1020.32,533.32c-13.81,0-25-11.19-25-25,0-144.32-89.45-248.77-127.9-286.98-9.79-9.73-9.84-25.56-.11-35.35,9.73-9.79,25.56-9.85,35.36-.11,42.89,42.62,142.66,159.35,142.66,322.45,0,13.81-11.19,25-25,25Z"/><path class="cls-3" d="M835.35,188.79c-5.46,0-10.96-1.78-15.56-5.45-43.41-34.58-92.22-60.18-145.09-76.12-13.22-3.98-20.71-17.93-16.72-31.15,3.98-13.22,17.93-20.71,31.15-16.72,58.98,17.77,113.42,46.33,161.82,84.88,10.8,8.6,12.58,24.33,3.98,35.13-4.94,6.2-12.22,9.42-19.57,9.42Z"/><path class="cls-2" d="M953.83,637.12c-10.68,96.54-42.06,205.09-86.09,297.83-4.28,9.01-13.25,14.28-22.6,14.28-3.59,0-7.24-.78-10.71-2.42-12.47-5.92-17.78-20.84-11.86-33.31,41.74-87.9,71.47-190.65,81.56-281.88,1.52-13.73,13.89-23.62,27.6-22.1,13.73,1.52,23.62,13.87,22.1,27.6Z"/><path class="cls-2" d="M762.69,766.16c-29.13,99.44-74.45,190.92-131.07,264.55-4.92,6.41-12.34,9.77-19.84,9.77-5.32,0-10.67-1.69-15.22-5.19-10.94-8.41-12.99-24.11-4.58-35.05,52.89-68.78,95.32-154.58,122.72-248.13,23.5-80.24,34.2-161.65,29.36-223.36-3.53-44.95-15.73-85.33-35.29-116.76-20.9-33.58-49.6-56.54-85.32-68.23-13.12-4.3-20.28-18.42-15.98-31.54,4.3-13.12,18.42-20.27,31.54-15.98,47.19,15.45,84.94,45.51,112.21,89.33,23.77,38.21,38.53,86.36,42.69,139.27,5.3,67.53-6.08,155.49-31.22,241.32Z"/><path class="cls-2" d="M193.94,525.4c2.99,53.45-6.94,99.51-29.51,136.89-17.41,28.82-42,52.06-73.08,69.06-3.8,2.09-7.92,3.08-11.97,3.08-8.85,0-17.41-4.7-21.96-13.01-6.63-12.11-2.18-27.3,9.93-33.93,55.1-30.15,80.89-83.74,76.67-159.3-2.87-51.44,4.04-101.25,20.54-148.06,15.47-43.88,39.03-84.29,70.03-120.08,9.04-10.44,24.83-11.57,35.26-2.54,10.44,9.04,11.58,24.83,2.54,35.27-56.2,64.9-83.32,145.34-78.45,232.62Z"/><path class="cls-2" d="M278.96,468.18c-2.15,12.12-12.69,20.63-24.58,20.63-1.45,0-2.93-.12-4.4-.39-13.6-2.41-22.66-15.39-20.25-28.98,6.19-34.8,17.4-67.24,33.33-96.44,15.76-28.89,36.21-54.73,60.78-76.81,48.93-43.98,112.24-72.28,188.19-84.1,13.65-2.13,26.43,7.21,28.55,20.86,2.13,13.64-7.21,26.42-20.86,28.54-66.2,10.31-120.86,34.49-162.45,71.88-41.52,37.32-67.86,86.04-78.31,144.81Z"/><path class="cls-2" d="M88.83,389.74c15.82-50.17,38.48-97.17,67.35-139.73,28.97-42.68,63.66-80.09,103.11-111.2,82.97-65.43,183.14-100.02,289.69-100.02,8.31,0,10.85-.3,12.37-.48,6.74-.79,9.39-.38,24.1,1.92,13.64,2.13,22.97,14.92,20.84,28.56s-14.92,22.98-28.56,20.84c-3.99-.62-8.82-1.38-10.85-1.62-3.34,.38-7.86,.78-17.9,.78-95.2,0-184.67,30.87-258.73,89.28-35.42,27.93-66.61,61.58-92.69,100.02-26.15,38.53-46.69,81.15-61.04,126.68-3.36,10.67-13.22,17.49-23.84,17.49-2.49,0-5.02-.38-7.52-1.16-13.17-4.16-20.48-18.2-16.33-31.36Z"/><path class="cls-2" d="M421.66,377.82c-41.52,36.56-66.19,91.09-67.69,149.61-.34,13.59-11.47,24.36-24.98,24.36-.21,0-.43,0-.65-.01-13.8-.35-24.7-11.82-24.35-25.63,1.85-72.38,32.7-140.12,84.63-185.85,23.93-21.08,51.39-36.68,81.62-46.37,32.02-10.27,66.43-13.63,102.26-9.99,13.74,1.4,23.74,13.67,22.35,27.4-1.4,13.74-13.67,23.74-27.4,22.35-56.12-5.71-106.53,9.56-145.79,44.13Z"/><path class="cls-2" d="M859.99,744.89c-15.49,89.16-44.48,157.78-106.95,253.19-4.79,7.32-12.79,11.3-20.94,11.3-4.69,0-9.44-1.32-13.67-4.08-11.55-7.57-14.78-23.06-7.22-34.61,59.09-90.25,85.14-151.58,99.52-234.36,2.37-13.61,15.31-22.72,28.91-20.35,13.61,2.36,22.72,15.3,20.35,28.91Z"/><path class="cls-2" d="M602.79,739.31c-34.26,105.96-93.85,198.83-177.13,276.03-4.81,4.46-10.91,6.66-16.99,6.66-6.72,0-13.41-2.69-18.34-8-9.39-10.13-8.79-25.95,1.34-35.33,76.93-71.32,131.95-157.02,163.54-254.74,28.03-86.7,30.07-160.17,28.79-196.25-.72-20.12-16.1-35.89-35.02-35.89-9.91,0-19.5,4.1-26.31,11.24-6.02,6.32-9.11,14.33-8.72,22.56,.18,3.66,.47,8.22,.81,13.5,3.11,48.38,9.57,149.06-25.73,242.84-26.79,71.17-106.33,149.27-153.85,195.93l-1.1,1.08c-9.85,9.68-25.68,9.53-35.35-.32-9.68-9.85-9.53-25.68,.32-35.35l1.1-1.09c41.65-40.9,119.18-117.03,142.08-177.86,31.52-83.71,25.52-177.13,22.63-222.03-.35-5.49-.65-10.23-.85-14.3-1.06-22.02,6.92-43.14,22.47-59.45,16.2-17,38.98-26.75,62.5-26.75,45.98,0,83.31,36.95,84.99,84.11,1.39,39.37-.8,119.43-31.18,213.41Z"/><path class="cls-2" d="M430.22,445.33c-9.65-9.88-9.46-25.71,.42-35.36,31.35-30.62,74.48-48.18,118.34-48.18,31.06,0,61.14,8.76,86.99,25.34,24.73,15.86,45.04,38.45,58.74,65.32,6.27,12.3,1.38,27.36-10.92,33.63-3.64,1.85-7.51,2.73-11.33,2.73-9.1,0-17.88-4.98-22.3-13.65-20.23-39.68-58.05-63.37-101.18-63.37-30.91,0-61.32,12.38-83.41,33.95-9.88,9.65-25.71,9.46-35.35-.41Z"/><path class="cls-2" d="M681.48,786.02c-29.65,88.18-79.25,169.29-151.65,247.96-4.93,5.36-11.65,8.07-18.4,8.07-6.05,0-12.12-2.18-16.92-6.6-10.16-9.35-10.82-25.17-1.47-35.33,67.55-73.4,113.68-148.64,141.04-230.03,24.38-72.53,34.17-151.73,29.93-242.13-.65-13.79,10.01-25.49,23.8-26.14,13.75-.65,25.5,10.01,26.15,23.8,4.53,96.71-6.09,181.89-32.48,260.4Z"/><path class="cls-3" d="M59.66,659.37c-4.69,0-9.44-1.32-13.66-4.08-11.56-7.56-14.8-23.05-7.24-34.61,14.83-22.69,16.27-49.71,17.93-81.01,1.29-24.36,2.63-49.54,10.67-75.03,4.15-13.17,18.19-20.48,31.36-16.33,13.17,4.15,20.48,18.19,16.33,31.36-6.13,19.45-7.25,40.43-8.43,62.65-1.87,35.28-3.81,71.76-26.01,105.72-4.8,7.34-12.79,11.32-20.95,11.32Z"/></g><g id="Layer_3_copy"><path class="cls-1" d="M645,764.18v15.82h-40v-15.82c6.13-2.69,12.89-4.18,20-4.18s13.87,1.49,20,4.18Z"/><rect class="cls-1" x="640" y="821.72" width="40" height="56.57" transform="translate(-407.73 715.65) rotate(-45)"/><path class="cls-1" d="M485,754.18v-198.36c17.65-7.73,30-25.36,30-45.82,0-27.57-22.43-50-50-50-8.11,0-15.79,1.95-22.57,5.4l-84.83-75.4H165.34c-7.73-17.65-25.36-30-45.82-30-27.57,0-50,22.43-50,50s22.43,50,50,50c20.46,0,38.09-12.35,45.82-30h120.67l-27.78,50h-22.41c-7.73-17.65-25.36-30-45.82-30-27.57,0-50,22.43-50,50s22.43,50,50,50c20.46,0,38.09-12.35,45.82-30h45.95l49.99-90h10.64l74.52,66.25c-1.25,4.37-1.92,8.98-1.92,13.75,0,20.46,12.35,38.09,30,45.82v198.36c-17.65,7.73-30,25.36-30,45.82,0,4.33,.55,8.54,1.6,12.55l-36.6,27.45v44.18c-17.65,7.73-30,25.36-30,45.82,0,27.57,22.43,50,50,50s50-22.43,50-50c0-20.46-12.35-38.09-30-45.82v-24.18l21.31-15.98c7.06,3.81,15.13,5.98,23.69,5.98,27.57,0,50-22.43,50-50,0-20.46-12.35-38.09-30-45.82ZM119.52,420c-5.52,0-10-4.49-10-10s4.48-10,10-10,10,4.49,10,10-4.49,10-10,10Zm70.48,90c-5.51,0-10-4.49-10-10s4.49-10,10-10,10,4.49,10,10-4.49,10-10,10Zm210,430c-5.51,0-10-4.49-10-10s4.49-10,10-10,10,4.49,10,10-4.49,10-10,10Zm65-130c-5.51,0-10-4.49-10-10s4.49-10,10-10,10,4.49,10,10-4.49,10-10,10Zm0-290c-5.51,0-10-4.49-10-10s4.49-10,10-10,10,4.49,10,10-4.49,10-10,10Z"/><path class="cls-1" d="M705,940c-27.57,0-50-22.43-50-50s22.43-50,50-50,50,22.43,50,50-22.43,50-50,50Zm0-60c-5.51,0-10,4.49-10,10s4.49,10,10,10,10-4.49,10-10-4.49-10-10-10Z"/><path class="cls-1" d="M645,764.18c-6.13-2.69-12.89-4.18-20-4.18s-13.87,1.49-20,4.18c-17.65,7.73-30,25.36-30,45.82,0,27.57,22.43,50,50,50,5.06,0,9.95-.76,14.56-2.16,13.4-4.09,24.43-13.66,30.46-26.1,3.19-6.58,4.98-13.95,4.98-21.74,0-20.46-12.35-38.09-30-45.82Zm-30,45.82c0-5.51,4.49-10,10-10s10,4.49,10,10-4.49,10-10,10-10-4.49-10-10Z"/><path class="cls-1" d="M975,470c-20.46,0-38.09,12.35-45.82,30h-59.7l-57.28-70h80.6c7.73,17.65,25.36,30,45.82,30,27.57,0,50-22.43,50-50s-22.43-50-50-50c-20.46,0-38.09,12.35-45.82,30h-54.52l54.98-54.98c6.58,3.19,13.95,4.98,21.74,4.98,27.57,0,50-22.43,50-50s-22.43-50-50-50-50,22.43-50,50c0,5.06,.76,9.95,2.16,14.56l-85.44,85.44h-80.38l-59.16,63.05c-5.36-1.97-11.15-3.05-17.18-3.05-27.57,0-50,22.43-50,50,0,20.46,12.35,38.09,30,45.82v218.36c6.13-2.69,12.89-4.18,20-4.18s13.87,1.49,20,4.18v-218.36c17.65-7.73,30-25.36,30-45.82,0-6.85-1.39-13.38-3.89-19.33l47.55-50.67h41.87l89.99,110h78.66c7.73,17.65,25.36,30,45.82,30,27.57,0,50-22.43,50-50s-22.43-50-50-50Zm-36.38-70c5.51,0,10,4.49,10,10s-4.49,10-10,10-10-4.49-10-10,4.49-10,10-10Zm-23.62-120c5.51,0,10,4.49,10,10s-4.49,10-10,10-10-4.49-10-10,4.49-10,10-10Zm-290,210c5.51,0,10,4.49,10,10s-4.49,10-10,10-10-4.49-10-10,4.49-10,10-10Zm350,40c-5.51,0-10-4.49-10-10s4.49-10,10-10,10,4.49,10,10-4.49,10-10,10Z"/><path class="cls-1" d="M835,110c-27.57,0-50,22.43-50,50,0,5.06,.76,9.95,2.16,14.56l-35.44,35.44h-43.44l-27.12-27.12,28.47-28.32c5.9,2.46,12.36,3.81,19.14,3.81,27.57,0,50-22.43,50-50s-22.43-50-50-50-50,22.43-50,50c0,6.1,1.1,11.96,3.11,17.37l-124.25,123.61-39.35-39.35h-31.05l-63.29-52.74,43.46-37.26h61.78c7.73,17.65,25.36,30,45.82,30,27.57,0,50-22.43,50-50s-22.43-50-50-50c-20.46,0-38.09,12.35-45.82,30h-76.58l-59.83,51.28-5.61-4.67c1.84-5.2,2.84-10.79,2.84-16.61,0-27.57-22.43-50-50-50s-50,22.43-50,50,22.43,50,50,50c7.05,0,13.76-1.47,19.84-4.11l64.93,54.11H215.82c-7.73-17.65-25.36-30-45.82-30-27.57,0-50,22.43-50,50s22.43,50,50,50c20.46,0,38.09-12.35,45.82-30h170.19l-27.78,50h-52.41c-7.73-17.65-25.36-30-45.82-30-27.57,0-50,22.43-50,50s22.43,50,50,50c20.46,0,38.09-12.35,45.82-30h75.95l49.99-90h69.96l27.56,27.56-4.29,4.27-.04,61.86c-18.26,7.46-31.15,25.41-31.15,46.31s13.6,39.82,32.65,46.89l-1.84,397.71c-17.15,7.93-29.07,25.3-29.07,45.4s11.87,37.39,28.96,45.35v18.83c-17.65,7.73-30,25.36-30,45.82,0,27.57,22.43,50,50,50s50-22.43,50-50c0-20.46-12.35-38.09-30-45.82v-17.92c18.2-7.48,31.04-25.4,31.04-46.26s-12.78-38.7-30.92-46.21l1.84-399.23c16.22-8.27,27.34-25.14,27.34-44.56s-11.82-37.32-28.85-45.3l.03-46.23,34.88-34.71,58.66,57.82c-2.27,5.7-3.52,11.92-3.52,18.42,0,27.57,22.43,50,50,50s50-22.43,50-50-22.43-50-50-50c-6.38,0-12.49,1.2-18.1,3.39l-58.68-57.84,24.59-24.46,38.91,38.91h76.56l44.98-44.98c6.58,3.19,13.95,4.98,21.74,4.98,27.57,0,50-22.43,50-50s-22.43-50-50-50Zm-106.23-11.63c5.51,0,10,4.49,10,10s-4.49,10-10,10-10-4.48-10-10,4.48-10,10-10Zm-153.77-8.37c5.51,0,10,4.49,10,10s-4.49,10-10,10-10-4.49-10-10,4.49-10,10-10Zm-235,30c-5.51,0-10-4.49-10-10s4.49-10,10-10,10,4.49,10,10-4.49,10-10,10Zm-170,120c-5.51,0-10-4.49-10-10s4.49-10,10-10,10,4.49,10,10-4.49,10-10,10Zm90,90c-5.51,0-10-4.49-10-10s4.49-10,10-10,10,4.49,10,10-4.49,10-10,10Zm283.8,50c5.52,0,10,4.49,10,10s-4.48,10-10,10-10-4.49-10-10,4.49-10,10-10Zm.7,620c-5.52,0-10-4.49-10-10s4.48-10,10-10,10,4.49,10,10-4.49,10-10,10Zm1.04-110c-5.52,0-10-4.49-10-10s4.48-10,10-10,10,4.49,10,10-4.49,10-10,10Zm159.46-560c5.51,0,10,4.49,10,10s-4.49,10-10,10-10-4.49-10-10,4.49-10,10-10Zm130-160c-5.51,0-10-4.49-10-10s4.49-10,10-10,10,4.49,10,10-4.49,10-10,10Z"/></g><g id="Layer_1_copy"><path class="cls-4" d="M475,761.26v-212.52c17.25-4.44,30-20.11,30-38.74,0-22.09-17.91-40-40-40-8.87,0-17.07,2.89-23.7,7.78l-87.5-77.78H158.26c-4.44-17.25-20.11-30-38.74-30-22.09,0-40,17.91-40,40s17.91,40,40,40c18.63,0,34.3-12.75,38.74-30h144.75l-38.89,70h-34.55c-4.44-17.25-20.11-30-38.74-30-22.1,0-40,17.91-40,40s17.9,40,40,40c18.63,0,34.3-12.75,38.74-30h46.31l50-90h20.32l82.46,73.29c-2.35,5.09-3.66,10.75-3.66,16.71,0,18.63,12.75,34.3,30,38.74v212.52c-17.25,4.44-30,20.11-30,38.74,0,5.76,1.22,11.24,3.42,16.19l-38.42,28.81v46.26c-17.25,4.44-30,20.11-30,38.74,0,22.09,17.91,40,40,40s40-17.91,40-40c0-18.63-12.75-34.3-30-38.74v-36.26l30.84-23.13c6.71,5.1,15.09,8.13,24.16,8.13,22.09,0,40-17.91,40-40,0-18.63-12.75-34.3-30-38.74ZM119.52,430c-11.03,0-20-8.97-20-20s8.97-20,20-20,20,8.97,20,20-8.98,20-20,20Zm71.31,90c-11.03,0-20-8.97-20-20s8.97-20,20-20,20,8.97,20,20-8.98,20-20,20Zm229.17,410c0,11.03-8.97,20-20,20s-20-8.97-20-20,8.97-20,20-20,20,8.97,20,20Zm25-420c0-11.03,8.97-20,20-20s20,8.97,20,20-8.97,20-20,20-20-8.97-20-20Zm20,310c-11.03,0-20-8.97-20-20s8.97-20,20-20,20,8.97,20,20-8.97,20-20,20Z"/><path class="cls-4" d="M975,480c-18.63,0-34.3,12.75-38.74,30h-71.52l-73.64-90h108.78c4.44,17.25,20.11,30,38.74,30,22.09,0,40-17.91,40-40s-17.91-40-40-40c-18.63,0-34.3,12.75-38.74,30h-85.74l77.52-77.52c6.57,4.73,14.63,7.52,23.34,7.52,22.09,0,40-17.91,40-40s-17.91-40-40-40-40,17.91-40,40c0,6.1,1.37,11.88,3.81,17.05l-92.95,92.95h-80.19l-61.1,65.11c-5.79-3.25-12.46-5.11-19.57-5.11-22.09,0-40,17.91-40,40,0,18.63,12.75,34.3,30,38.74v232.52c-17.25,4.44-30,20.11-30,38.74,0,22.09,17.91,40,40,40,6.1,0,11.88-1.37,17.05-3.81l26.76,26.76c-2.44,5.17-3.81,10.95-3.81,17.05,0,22.09,17.91,40,40,40s40-17.91,40-40-17.91-40-40-40c-8.71,0-16.77,2.79-23.34,7.52l-24.18-24.18c4.73-6.57,7.52-14.63,7.52-23.34,0-18.63-12.75-34.3-30-38.74v-232.52c17.25-4.44,30-20.11,30-38.74,0-7.72-2.19-14.94-5.99-21.05l55.32-58.95h50.93l90,110h81c4.44,17.25,20.11,30,38.74,30,22.09,0,40-17.91,40-40s-17.91-40-40-40Zm-36.38-90c11.03,0,20,8.97,20,20s-8.97,20-20,20-20-8.97-20-20,8.97-20,20-20Zm-23.62-120c11.03,0,20,8.97,20,20s-8.97,20-20,20-20-8.97-20-20,8.97-20,20-20Zm-210,600c11.03,0,20,8.97,20,20s-8.97,20-20,20-20-8.97-20-20,8.97-20,20-20Zm-60-60c0,11.03-8.97,20-20,20s-20-8.97-20-20,8.97-20,20-20,20,8.97,20,20Zm-20-290c-11.03,0-20-8.97-20-20s8.97-20,20-20,20,8.97,20,20-8.97,20-20,20Zm350,20c-11.03,0-20-8.97-20-20s8.97-20,20-20,20,8.97,20,20-8.97,20-20,20Z"/><path class="cls-4" d="M835,120c-22.09,0-40,17.91-40,40,0,6.1,1.37,11.88,3.81,17.05l-42.95,42.95h-51.72l-37.14-37.14,40.7-40.48c6.12,3.8,13.34,5.99,21.07,5.99,22.09,0,40-17.91,40-40s-17.91-40-40-40-40,17.91-40,40c0,7.1,1.85,13.77,5.09,19.55l-136.25,135.55-43.47-43.47h-30.52l-75.17-62.64,55.25-47.36h72.56c4.44,17.25,20.11,30,38.74,30,22.09,0,40-17.91,40-40s-17.91-40-40-40c-18.63,0-34.3,12.75-38.74,30h-79.96l-63.44,54.37-17.91-14.92c3.22-5.76,5.05-12.39,5.05-19.45,0-22.09-17.91-40-40-40s-40,17.91-40,40,17.91,40,40,40c7.76,0,15.01-2.21,21.14-6.04l91.24,76.04H208.74c-4.44-17.25-20.11-30-38.74-30-22.09,0-40,17.91-40,40s17.91,40,40,40c18.63,0,34.3-12.75,38.74-30h194.27l-38.89,70h-65.38c-4.44-17.25-20.11-30-38.74-30-22.09,0-40,17.91-40,40s17.91,40,40,40c18.63,0,34.3-12.75,38.74-30h77.14l50-90h79.98l37.58,37.58-8.46,8.41-.04,65.28c-17.23,4.46-29.96,20.11-29.96,38.73s13.5,35.2,31.51,39.1l-1.91,412.42c-16.77,4.77-29.04,20.19-29.04,38.48s12.23,33.66,28.96,38.45v32.81c-17.26,4.44-30,20.1-30,38.74,0,22.09,17.9,40,40,40s40-17.91,40-40c0-18.63-12.75-34.3-30-38.74v-32.26c17.78-4.08,31.04-19.99,31.04-39s-13.22-34.87-30.96-38.98l1.91-412.71c16.48-4.94,28.49-20.22,28.49-38.31s-12.76-34.31-30.03-38.75l.03-56.94,44.85-44.62,70.82,69.81c-3.59,6-5.65,13.01-5.65,20.5,0,22.09,17.91,40,40,40s40-17.91,40-40-17.91-40-40-40c-7.34,0-14.21,1.98-20.13,5.43l-70.86-69.85,38.82-38.61,43.03,43.03h68.28l47.52-47.52c6.57,4.73,14.63,7.52,23.34,7.52,22.09,0,40-17.91,40-40s-17.91-40-40-40Zm-106.23-31.63c11.02,0,20,8.98,20,20s-8.98,20-20,20-20-8.97-20-20,8.97-20,20-20Zm-153.77-8.37c11.03,0,20,8.97,20,20s-8.97,20-20,20-20-8.97-20-20,8.97-20,20-20Zm-235,50c-11.03,0-20-8.97-20-20s8.97-20,20-20,20,8.97,20,20-8.97,20-20,20Zm-170,120c-11.03,0-20-8.97-20-20s8.97-20,20-20,20,8.97,20,20-8.97,20-20,20Zm90,90c-11.03,0-20-8.97-20-20s8.97-20,20-20,20,8.97,20,20-8.97,20-20,20Zm304.5,650c0,11.03-8.98,20-20,20s-20-8.97-20-20,8.97-20,20-20,20,8.97,20,20Zm1.04-110c0,11.03-8.98,20-20,20s-20-8.97-20-20,8.97-20,20-20,20,8.97,20,20Zm-.56-490c0,11.03-8.97,20-20,20s-20-8.97-20-20,8.97-20,20-20,20,8.97,20,20Zm140.02-70c11.03,0,20,8.97,20,20s-8.97,20-20,20-20-8.97-20-20,8.97-20,20-20Zm130-140c-11.03,0-20-8.97-20-20s8.97-20,20-20,20,8.97,20,20-8.97,20-20,20Z"/></g></svg>